<mxfile host="app.diagrams.net" agent="Mozilla/5.0 (Windows NT 10.0; Win64; x64) AppleWebKit/537.36 (KHTML, like Gecko) Chrome/127.0.0.0 Safari/537.36" version="24.7.6">
  <diagram name="Page-1" id="eOJ4QTS83NnCb0QkOUiU">
    <mxGraphModel dx="1050" dy="522" grid="1" gridSize="10" guides="1" tooltips="1" connect="1" arrows="1" fold="1" page="1" pageScale="1" pageWidth="827" pageHeight="1169" math="0" shadow="0">
      <root>
        <mxCell id="0" />
        <mxCell id="1" parent="0" />
        <mxCell id="jWbt91FMcHT18E_j-DVa-154" style="edgeStyle=orthogonalEdgeStyle;rounded=0;orthogonalLoop=1;jettySize=auto;html=1;exitX=1;exitY=0;exitDx=0;exitDy=0;" parent="1" source="jWbt91FMcHT18E_j-DVa-5" target="jWbt91FMcHT18E_j-DVa-29" edge="1">
          <mxGeometry relative="1" as="geometry" />
        </mxCell>
        <mxCell id="jWbt91FMcHT18E_j-DVa-5" value="Transaction Management System" style="ellipse;whiteSpace=wrap;html=1;aspect=fixed;" parent="1" vertex="1">
          <mxGeometry x="385" y="122" width="100" height="100" as="geometry" />
        </mxCell>
        <mxCell id="lopQNzWcyJBpiGZpTzDz-1" style="edgeStyle=orthogonalEdgeStyle;rounded=0;orthogonalLoop=1;jettySize=auto;html=1;exitX=0;exitY=0;exitDx=0;exitDy=0;" edge="1" parent="1" source="jWbt91FMcHT18E_j-DVa-6">
          <mxGeometry relative="1" as="geometry">
            <mxPoint x="190" y="347" as="targetPoint" />
          </mxGeometry>
        </mxCell>
        <mxCell id="jWbt91FMcHT18E_j-DVa-6" value="Account management system" style="ellipse;whiteSpace=wrap;html=1;aspect=fixed;" parent="1" vertex="1">
          <mxGeometry x="230" y="332" width="100" height="100" as="geometry" />
        </mxCell>
        <mxCell id="jWbt91FMcHT18E_j-DVa-7" value="Online Banking System" style="ellipse;whiteSpace=wrap;html=1;aspect=fixed;" parent="1" vertex="1">
          <mxGeometry x="655" y="364" width="100" height="100" as="geometry" />
        </mxCell>
        <mxCell id="jWbt91FMcHT18E_j-DVa-8" value="Loan Management System" style="ellipse;whiteSpace=wrap;html=1;aspect=fixed;" parent="1" vertex="1">
          <mxGeometry x="449" y="494" width="100" height="100" as="geometry" />
        </mxCell>
        <mxCell id="jWbt91FMcHT18E_j-DVa-173" style="edgeStyle=orthogonalEdgeStyle;rounded=0;orthogonalLoop=1;jettySize=auto;html=1;exitX=0.5;exitY=1;exitDx=0;exitDy=0;" parent="1" source="jWbt91FMcHT18E_j-DVa-9" target="jWbt91FMcHT18E_j-DVa-6" edge="1">
          <mxGeometry relative="1" as="geometry" />
        </mxCell>
        <mxCell id="jWbt91FMcHT18E_j-DVa-182" style="edgeStyle=orthogonalEdgeStyle;rounded=0;orthogonalLoop=1;jettySize=auto;html=1;exitX=0.5;exitY=0;exitDx=0;exitDy=0;entryX=1;entryY=0.5;entryDx=0;entryDy=0;" parent="1" source="jWbt91FMcHT18E_j-DVa-9" target="jWbt91FMcHT18E_j-DVa-7" edge="1">
          <mxGeometry relative="1" as="geometry">
            <Array as="points">
              <mxPoint x="280" y="70" />
              <mxPoint x="800" y="70" />
              <mxPoint x="800" y="414" />
            </Array>
          </mxGeometry>
        </mxCell>
        <mxCell id="jWbt91FMcHT18E_j-DVa-9" value="Bank" style="rounded=0;whiteSpace=wrap;html=1;" parent="1" vertex="1">
          <mxGeometry x="225" y="114" width="110" height="30" as="geometry" />
        </mxCell>
        <mxCell id="jWbt91FMcHT18E_j-DVa-157" style="edgeStyle=orthogonalEdgeStyle;rounded=0;orthogonalLoop=1;jettySize=auto;html=1;exitX=0.75;exitY=1;exitDx=0;exitDy=0;entryX=0;entryY=0.5;entryDx=0;entryDy=0;" parent="1" source="jWbt91FMcHT18E_j-DVa-11" target="jWbt91FMcHT18E_j-DVa-8" edge="1">
          <mxGeometry relative="1" as="geometry" />
        </mxCell>
        <mxCell id="jWbt91FMcHT18E_j-DVa-188" style="edgeStyle=orthogonalEdgeStyle;rounded=0;orthogonalLoop=1;jettySize=auto;html=1;exitX=0.5;exitY=1;exitDx=0;exitDy=0;" parent="1" source="jWbt91FMcHT18E_j-DVa-11" target="jWbt91FMcHT18E_j-DVa-6" edge="1">
          <mxGeometry relative="1" as="geometry">
            <Array as="points">
              <mxPoint x="390" y="400" />
            </Array>
          </mxGeometry>
        </mxCell>
        <mxCell id="jWbt91FMcHT18E_j-DVa-189" style="edgeStyle=orthogonalEdgeStyle;rounded=0;orthogonalLoop=1;jettySize=auto;html=1;exitX=0.75;exitY=0;exitDx=0;exitDy=0;entryX=0.5;entryY=1;entryDx=0;entryDy=0;" parent="1" source="jWbt91FMcHT18E_j-DVa-11" target="jWbt91FMcHT18E_j-DVa-5" edge="1">
          <mxGeometry relative="1" as="geometry">
            <Array as="points">
              <mxPoint x="430" y="324" />
              <mxPoint x="430" y="284" />
              <mxPoint x="435" y="284" />
            </Array>
          </mxGeometry>
        </mxCell>
        <mxCell id="jWbt91FMcHT18E_j-DVa-11" value="Customer" style="rounded=0;whiteSpace=wrap;html=1;" parent="1" vertex="1">
          <mxGeometry x="335" y="324" width="110" height="30" as="geometry" />
        </mxCell>
        <mxCell id="jWbt91FMcHT18E_j-DVa-12" value="Account/Cashier&lt;span style=&quot;color: rgba(0, 0, 0, 0); font-family: monospace; font-size: 0px; text-align: start; text-wrap: nowrap;&quot;&gt;%3CmxGraphModel%3E%3Croot%3E%3CmxCell%20id%3D%220%22%2F%3E%3CmxCell%20id%3D%221%22%20parent%3D%220%22%2F%3E%3CmxCell%20id%3D%222%22%20value%3D%22%22%20style%3D%22endArrow%3Dnone%3Bhtml%3D1%3Brounded%3D0%3B%22%20edge%3D%221%22%20parent%3D%221%22%3E%3CmxGeometry%20width%3D%2250%22%20height%3D%2250%22%20relative%3D%221%22%20as%3D%22geometry%22%3E%3CmxPoint%20x%3D%22394%22%20y%3D%22560%22%20as%3D%22sourcePoint%22%2F%3E%3CmxPoint%20x%3D%22524%22%20y%3D%22560%22%20as%3D%22targetPoint%22%2F%3E%3C%2FmxGeometry%3E%3C%2FmxCell%3E%3CmxCell%20id%3D%223%22%20value%3D%22%22%20style%3D%22endArrow%3Dnone%3Bhtml%3D1%3Brounded%3D0%3B%22%20edge%3D%221%22%20parent%3D%221%22%3E%3CmxGeometry%20width%3D%2250%22%20height%3D%2250%22%20relative%3D%221%22%20as%3D%22geometry%22%3E%3CmxPoint%20x%3D%22394%22%20y%3D%22600%22%20as%3D%22sourcePoint%22%2F%3E%3CmxPoint%20x%3D%22524%22%20y%3D%22600%22%20as%3D%22targetPoint%22%2F%3E%3C%2FmxGeometry%3E%3C%2FmxCell%3E%3C%2Froot%3E%3C%2FmxGraphModel%3E&lt;/span&gt;" style="rounded=0;whiteSpace=wrap;html=1;" parent="1" vertex="1">
          <mxGeometry x="59" y="214" width="150" height="30" as="geometry" />
        </mxCell>
        <mxCell id="jWbt91FMcHT18E_j-DVa-158" style="edgeStyle=orthogonalEdgeStyle;rounded=0;orthogonalLoop=1;jettySize=auto;html=1;exitX=0.5;exitY=1;exitDx=0;exitDy=0;" parent="1" source="jWbt91FMcHT18E_j-DVa-13" target="jWbt91FMcHT18E_j-DVa-8" edge="1">
          <mxGeometry relative="1" as="geometry" />
        </mxCell>
        <mxCell id="jWbt91FMcHT18E_j-DVa-13" value="Manager" style="rounded=0;whiteSpace=wrap;html=1;" parent="1" vertex="1">
          <mxGeometry x="449" y="364" width="110" height="30" as="geometry" />
        </mxCell>
        <mxCell id="jWbt91FMcHT18E_j-DVa-175" style="edgeStyle=orthogonalEdgeStyle;rounded=0;orthogonalLoop=1;jettySize=auto;html=1;exitX=0.75;exitY=1;exitDx=0;exitDy=0;entryX=0.5;entryY=0;entryDx=0;entryDy=0;" parent="1" source="jWbt91FMcHT18E_j-DVa-14" target="jWbt91FMcHT18E_j-DVa-7" edge="1">
          <mxGeometry relative="1" as="geometry" />
        </mxCell>
        <mxCell id="jWbt91FMcHT18E_j-DVa-14" value="Accountant/Cashier" style="rounded=0;whiteSpace=wrap;html=1;" parent="1" vertex="1">
          <mxGeometry x="565" y="274" width="110" height="30" as="geometry" />
        </mxCell>
        <mxCell id="jWbt91FMcHT18E_j-DVa-18" value="" style="endArrow=none;html=1;rounded=0;" parent="1" edge="1">
          <mxGeometry width="50" height="50" relative="1" as="geometry">
            <mxPoint x="429" y="644" as="sourcePoint" />
            <mxPoint x="559" y="644" as="targetPoint" />
          </mxGeometry>
        </mxCell>
        <mxCell id="jWbt91FMcHT18E_j-DVa-19" value="" style="endArrow=none;html=1;rounded=0;" parent="1" edge="1">
          <mxGeometry width="50" height="50" relative="1" as="geometry">
            <mxPoint x="429" y="684" as="sourcePoint" />
            <mxPoint x="559" y="684" as="targetPoint" />
          </mxGeometry>
        </mxCell>
        <mxCell id="jWbt91FMcHT18E_j-DVa-22" value="Loan&lt;br&gt;Detail&lt;span style=&quot;color: rgba(0, 0, 0, 0); font-family: monospace; font-size: 0px; text-align: start;&quot;&gt;%3CmxGraphModel%3E%3Croot%3E%3CmxCell%20id%3D%220%22%2F%3E%3CmxCell%20id%3D%221%22%20parent%3D%220%22%2F%3E%3CmxCell%20id%3D%222%22%20value%3D%22%22%20style%3D%22endArrow%3Dnone%3Bhtml%3D1%3Brounded%3D0%3B%22%20edge%3D%221%22%20parent%3D%221%22%3E%3CmxGeometry%20width%3D%2250%22%20height%3D%2250%22%20relative%3D%221%22%20as%3D%22geometry%22%3E%3CmxPoint%20x%3D%22394%22%20y%3D%22560%22%20as%3D%22sourcePoint%22%2F%3E%3CmxPoint%20x%3D%22524%22%20y%3D%22560%22%20as%3D%22targetPoint%22%2F%3E%3C%2FmxGeometry%3E%3C%2FmxCell%3E%3CmxCell%20id%3D%223%22%20value%3D%22%22%20style%3D%22endArrow%3Dnone%3Bhtml%3D1%3Brounded%3D0%3B%22%20edge%3D%221%22%20parent%3D%221%22%3E%3CmxGeometry%20width%3D%2250%22%20height%3D%2250%22%20relative%3D%221%22%20as%3D%22geometry%22%3E%3CmxPoint%20x%3D%22394%22%20y%3D%22600%22%20as%3D%22sourcePoint%22%2F%3E%3CmxPoint%20x%3D%22524%22%20y%3D%22600%22%20as%3D%22targetPoint%22%2F%3E%3C%2FmxGeometry%3E%3C%2FmxCell%3E%3C%2Froot%3E%3C%2FmxGraphModel%3E&lt;/span&gt;" style="text;html=1;align=center;verticalAlign=middle;resizable=0;points=[];autosize=1;strokeColor=none;fillColor=none;" parent="1" vertex="1">
          <mxGeometry x="470" y="647" width="50" height="40" as="geometry" />
        </mxCell>
        <mxCell id="jWbt91FMcHT18E_j-DVa-23" value="" style="endArrow=none;html=1;rounded=0;" parent="1" edge="1">
          <mxGeometry width="50" height="50" relative="1" as="geometry">
            <mxPoint x="565" y="102.57000000000005" as="sourcePoint" />
            <mxPoint x="695" y="102.57000000000005" as="targetPoint" />
          </mxGeometry>
        </mxCell>
        <mxCell id="jWbt91FMcHT18E_j-DVa-24" value="" style="endArrow=none;html=1;rounded=0;" parent="1" edge="1">
          <mxGeometry width="50" height="50" relative="1" as="geometry">
            <mxPoint x="565" y="142.57000000000005" as="sourcePoint" />
            <mxPoint x="695" y="142.57000000000005" as="targetPoint" />
          </mxGeometry>
        </mxCell>
        <mxCell id="jWbt91FMcHT18E_j-DVa-27" value="" style="endArrow=none;html=1;rounded=0;" parent="1" edge="1">
          <mxGeometry width="50" height="50" relative="1" as="geometry">
            <mxPoint x="565" y="184" as="sourcePoint" />
            <mxPoint x="695" y="184" as="targetPoint" />
          </mxGeometry>
        </mxCell>
        <mxCell id="jWbt91FMcHT18E_j-DVa-28" value="" style="endArrow=none;html=1;rounded=0;" parent="1" edge="1">
          <mxGeometry width="50" height="50" relative="1" as="geometry">
            <mxPoint x="565" y="224" as="sourcePoint" />
            <mxPoint x="695" y="224" as="targetPoint" />
          </mxGeometry>
        </mxCell>
        <mxCell id="jWbt91FMcHT18E_j-DVa-29" value="Credit detail&lt;div&gt;&lt;br&gt;&lt;/div&gt;" style="text;html=1;align=center;verticalAlign=middle;resizable=0;points=[];autosize=1;strokeColor=none;fillColor=none;" parent="1" vertex="1">
          <mxGeometry x="585" y="107" width="90" height="40" as="geometry" />
        </mxCell>
        <mxCell id="jWbt91FMcHT18E_j-DVa-30" value="Debit detail" style="text;html=1;align=center;verticalAlign=middle;resizable=0;points=[];autosize=1;strokeColor=none;fillColor=none;" parent="1" vertex="1">
          <mxGeometry x="585" y="192" width="80" height="30" as="geometry" />
        </mxCell>
        <mxCell id="jWbt91FMcHT18E_j-DVa-31" value="" style="endArrow=none;html=1;rounded=0;" parent="1" edge="1">
          <mxGeometry width="50" height="50" relative="1" as="geometry">
            <mxPoint x="59" y="322.57" as="sourcePoint" />
            <mxPoint x="189" y="322.57" as="targetPoint" />
          </mxGeometry>
        </mxCell>
        <mxCell id="jWbt91FMcHT18E_j-DVa-32" value="" style="endArrow=none;html=1;rounded=0;" parent="1" edge="1">
          <mxGeometry width="50" height="50" relative="1" as="geometry">
            <mxPoint x="59" y="362.57" as="sourcePoint" />
            <mxPoint x="189" y="362.57" as="targetPoint" />
          </mxGeometry>
        </mxCell>
        <mxCell id="jWbt91FMcHT18E_j-DVa-35" value="" style="endArrow=none;html=1;rounded=0;" parent="1" edge="1">
          <mxGeometry width="50" height="50" relative="1" as="geometry">
            <mxPoint x="65" y="432" as="sourcePoint" />
            <mxPoint x="195" y="432" as="targetPoint" />
          </mxGeometry>
        </mxCell>
        <mxCell id="jWbt91FMcHT18E_j-DVa-36" value="" style="endArrow=none;html=1;rounded=0;" parent="1" edge="1">
          <mxGeometry width="50" height="50" relative="1" as="geometry">
            <mxPoint x="65" y="472" as="sourcePoint" />
            <mxPoint x="195" y="472" as="targetPoint" />
          </mxGeometry>
        </mxCell>
        <mxCell id="jWbt91FMcHT18E_j-DVa-37" value="Account detail" style="text;html=1;align=center;verticalAlign=middle;resizable=0;points=[];autosize=1;strokeColor=none;fillColor=none;" parent="1" vertex="1">
          <mxGeometry x="78" y="330.57" width="100" height="30" as="geometry" />
        </mxCell>
        <mxCell id="jWbt91FMcHT18E_j-DVa-38" value="Interest detail" style="text;html=1;align=center;verticalAlign=middle;resizable=0;points=[];autosize=1;strokeColor=none;fillColor=none;" parent="1" vertex="1">
          <mxGeometry x="85" y="440" width="100" height="30" as="geometry" />
        </mxCell>
        <mxCell id="jWbt91FMcHT18E_j-DVa-139" value="" style="endArrow=none;html=1;rounded=0;" parent="1" edge="1">
          <mxGeometry width="50" height="50" relative="1" as="geometry">
            <mxPoint x="230" y="555" as="sourcePoint" />
            <mxPoint x="360" y="555" as="targetPoint" />
          </mxGeometry>
        </mxCell>
        <mxCell id="jWbt91FMcHT18E_j-DVa-140" value="" style="endArrow=none;html=1;rounded=0;" parent="1" edge="1">
          <mxGeometry width="50" height="50" relative="1" as="geometry">
            <mxPoint x="230" y="598" as="sourcePoint" />
            <mxPoint x="360" y="598" as="targetPoint" />
          </mxGeometry>
        </mxCell>
        <mxCell id="jWbt91FMcHT18E_j-DVa-141" value="Cash records&lt;div&gt;&amp;nbsp;&lt;/div&gt;" style="text;html=1;align=center;verticalAlign=middle;resizable=0;points=[];autosize=1;strokeColor=none;fillColor=none;" parent="1" vertex="1">
          <mxGeometry x="246" y="561" width="90" height="40" as="geometry" />
        </mxCell>
        <mxCell id="jWbt91FMcHT18E_j-DVa-144" value="&lt;span style=&quot;color: rgba(0, 0, 0, 0); font-family: monospace; font-size: 0px; text-align: start;&quot;&gt;%3CmxGraphModel%3E%3Croot%3E%3CmxCell%20id%3D%220%22%2F%3E%3CmxCell%20id%3D%221%22%20parent%3D%220%22%2F%3E%3CmxCell%20id%3D%222%22%20value%3D%22%22%20style%3D%22endArrow%3Dnone%3Bhtml%3D1%3Brounded%3D0%3B%22%20edge%3D%221%22%20parent%3D%221%22%3E%3CmxGeometry%20width%3D%2250%22%20height%3D%2250%22%20relative%3D%221%22%20as%3D%22geometry%22%3E%3CmxPoint%20x%3D%22165%22%20y%3D%22520%22%20as%3D%22sourcePoint%22%2F%3E%3CmxPoint%20x%3D%22295%22%20y%3D%22520%22%20as%3D%22targetPoint%22%2F%3E%3C%2FmxGeometry%3E%3C%2FmxCell%3E%3C%2Froot%3E%3C%2FmxGraphModel%3E&lt;/span&gt;&lt;span style=&quot;color: rgba(0, 0, 0, 0); font-family: monospace; font-size: 0px; text-align: start;&quot;&gt;%3CmxGraphModel%3E%3Croot%3E%3CmxCell%20id%3D%220%22%2F%3E%3CmxCell%20id%3D%221%22%20parent%3D%220%22%2F%3E%3CmxCell%20id%3D%222%22%20value%3D%22%22%20style%3D%22endArrow%3Dnone%3Bhtml%3D1%3Brounded%3D0%3B%22%20edge%3D%221%22%20parent%3D%221%22%3E%3CmxGeometry%20width%3D%2250%22%20height%3D%2250%22%20relative%3D%221%22%20as%3D%22geometry%22%3E%3CmxPoint%20x%3D%22165%22%20y%3D%22520%22%20as%3D%22sourcePoint%22%2F%3E%3CmxPoint%20x%3D%22295%22%20y%3D%22520%22%20as%3D%22targetPoint%22%2F%3E%3C%2FmxGeometry%3E%3C%2FmxCell%3E%3C%2Froot%3E%3C%2FmxGraphModel%3E&lt;/span&gt;" style="text;html=1;align=center;verticalAlign=middle;resizable=0;points=[];autosize=1;strokeColor=none;fillColor=none;" parent="1" vertex="1">
          <mxGeometry x="385" y="432" width="20" height="30" as="geometry" />
        </mxCell>
        <mxCell id="jWbt91FMcHT18E_j-DVa-145" value="" style="endArrow=none;html=1;rounded=0;" parent="1" edge="1">
          <mxGeometry width="50" height="50" relative="1" as="geometry">
            <mxPoint x="645" y="524" as="sourcePoint" />
            <mxPoint x="765" y="524" as="targetPoint" />
          </mxGeometry>
        </mxCell>
        <mxCell id="jWbt91FMcHT18E_j-DVa-146" value="" style="endArrow=none;html=1;rounded=0;" parent="1" edge="1">
          <mxGeometry width="50" height="50" relative="1" as="geometry">
            <mxPoint x="645" y="564" as="sourcePoint" />
            <mxPoint x="765" y="564" as="targetPoint" />
          </mxGeometry>
        </mxCell>
        <mxCell id="jWbt91FMcHT18E_j-DVa-147" value="Employee Records" style="text;html=1;align=center;verticalAlign=middle;resizable=0;points=[];autosize=1;strokeColor=none;fillColor=none;" parent="1" vertex="1">
          <mxGeometry x="645" y="525" width="120" height="30" as="geometry" />
        </mxCell>
        <mxCell id="jWbt91FMcHT18E_j-DVa-150" style="edgeStyle=orthogonalEdgeStyle;rounded=0;orthogonalLoop=1;jettySize=auto;html=1;exitX=1;exitY=0.5;exitDx=0;exitDy=0;entryX=0.28;entryY=0.069;entryDx=0;entryDy=0;entryPerimeter=0;" parent="1" source="jWbt91FMcHT18E_j-DVa-12" target="jWbt91FMcHT18E_j-DVa-6" edge="1">
          <mxGeometry relative="1" as="geometry" />
        </mxCell>
        <mxCell id="jWbt91FMcHT18E_j-DVa-155" style="edgeStyle=orthogonalEdgeStyle;rounded=0;orthogonalLoop=1;jettySize=auto;html=1;entryX=0.004;entryY=0.486;entryDx=0;entryDy=0;entryPerimeter=0;" parent="1" source="jWbt91FMcHT18E_j-DVa-5" target="jWbt91FMcHT18E_j-DVa-30" edge="1">
          <mxGeometry relative="1" as="geometry" />
        </mxCell>
        <mxCell id="jWbt91FMcHT18E_j-DVa-159" style="edgeStyle=orthogonalEdgeStyle;rounded=0;orthogonalLoop=1;jettySize=auto;html=1;exitX=1;exitY=0.5;exitDx=0;exitDy=0;entryX=0.023;entryY=0.334;entryDx=0;entryDy=0;entryPerimeter=0;" parent="1" source="jWbt91FMcHT18E_j-DVa-13" target="jWbt91FMcHT18E_j-DVa-7" edge="1">
          <mxGeometry relative="1" as="geometry" />
        </mxCell>
        <mxCell id="jWbt91FMcHT18E_j-DVa-171" style="edgeStyle=orthogonalEdgeStyle;rounded=0;orthogonalLoop=1;jettySize=auto;html=1;exitX=0.619;exitY=0.009;exitDx=0;exitDy=0;exitPerimeter=0;" parent="1" source="jWbt91FMcHT18E_j-DVa-6" target="jWbt91FMcHT18E_j-DVa-5" edge="1">
          <mxGeometry relative="1" as="geometry">
            <Array as="points">
              <mxPoint x="292" y="288" />
              <mxPoint x="415" y="288" />
            </Array>
          </mxGeometry>
        </mxCell>
        <mxCell id="jWbt91FMcHT18E_j-DVa-172" style="edgeStyle=orthogonalEdgeStyle;rounded=0;orthogonalLoop=1;jettySize=auto;html=1;exitX=0;exitY=0.5;exitDx=0;exitDy=0;entryX=0.746;entryY=0.98;entryDx=0;entryDy=0;entryPerimeter=0;" parent="1" source="jWbt91FMcHT18E_j-DVa-14" target="jWbt91FMcHT18E_j-DVa-5" edge="1">
          <mxGeometry relative="1" as="geometry" />
        </mxCell>
        <mxCell id="jWbt91FMcHT18E_j-DVa-174" style="edgeStyle=orthogonalEdgeStyle;rounded=0;orthogonalLoop=1;jettySize=auto;html=1;exitX=0.5;exitY=1;exitDx=0;exitDy=0;entryX=0.512;entryY=-0.024;entryDx=0;entryDy=0;entryPerimeter=0;" parent="1" source="jWbt91FMcHT18E_j-DVa-7" target="jWbt91FMcHT18E_j-DVa-147" edge="1">
          <mxGeometry relative="1" as="geometry" />
        </mxCell>
        <mxCell id="jWbt91FMcHT18E_j-DVa-177" value="" style="edgeStyle=none;orthogonalLoop=1;jettySize=auto;html=1;rounded=0;" parent="1" edge="1">
          <mxGeometry width="100" relative="1" as="geometry">
            <mxPoint x="355" y="580.29" as="sourcePoint" />
            <mxPoint x="455" y="580.29" as="targetPoint" />
            <Array as="points" />
          </mxGeometry>
        </mxCell>
        <mxCell id="jWbt91FMcHT18E_j-DVa-179" style="edgeStyle=orthogonalEdgeStyle;rounded=0;orthogonalLoop=1;jettySize=auto;html=1;exitX=0.5;exitY=1;exitDx=0;exitDy=0;entryX=1.003;entryY=0.79;entryDx=0;entryDy=0;entryPerimeter=0;" parent="1" source="jWbt91FMcHT18E_j-DVa-6" target="jWbt91FMcHT18E_j-DVa-38" edge="1">
          <mxGeometry relative="1" as="geometry" />
        </mxCell>
        <mxCell id="jWbt91FMcHT18E_j-DVa-180" style="edgeStyle=orthogonalEdgeStyle;rounded=0;orthogonalLoop=1;jettySize=auto;html=1;exitX=1;exitY=1;exitDx=0;exitDy=0;entryX=0.722;entryY=-0.004;entryDx=0;entryDy=0;entryPerimeter=0;" parent="1" source="jWbt91FMcHT18E_j-DVa-6" target="jWbt91FMcHT18E_j-DVa-141" edge="1">
          <mxGeometry relative="1" as="geometry" />
        </mxCell>
        <mxCell id="jWbt91FMcHT18E_j-DVa-181" style="edgeStyle=orthogonalEdgeStyle;rounded=0;orthogonalLoop=1;jettySize=auto;html=1;exitX=0.5;exitY=1;exitDx=0;exitDy=0;entryX=0.586;entryY=-0.075;entryDx=0;entryDy=0;entryPerimeter=0;" parent="1" source="jWbt91FMcHT18E_j-DVa-8" target="jWbt91FMcHT18E_j-DVa-22" edge="1">
          <mxGeometry relative="1" as="geometry" />
        </mxCell>
        <mxCell id="jWbt91FMcHT18E_j-DVa-183" value="A Bank manages all the Employees of the Branch" style="text;html=1;align=center;verticalAlign=middle;resizable=0;points=[];autosize=1;strokeColor=none;fillColor=none;" parent="1" vertex="1">
          <mxGeometry x="345" y="38" width="290" height="30" as="geometry" />
        </mxCell>
        <mxCell id="jWbt91FMcHT18E_j-DVa-184" value="A Bank checks for all the accounts and&lt;div&gt;&amp;nbsp;manages all the Branches of the Bank&lt;/div&gt;" style="text;html=1;align=center;verticalAlign=middle;resizable=0;points=[];autosize=1;strokeColor=none;fillColor=none;" parent="1" vertex="1">
          <mxGeometry x="59" y="160" width="230" height="40" as="geometry" />
        </mxCell>
        <mxCell id="jWbt91FMcHT18E_j-DVa-185" value="Manages the Queries and&amp;nbsp;&lt;div&gt;execute requests the&amp;nbsp;&lt;/div&gt;&lt;div&gt;Account for Customer.&lt;/div&gt;" style="text;html=1;align=center;verticalAlign=middle;resizable=0;points=[];autosize=1;strokeColor=none;fillColor=none;" parent="1" vertex="1">
          <mxGeometry x="49" y="250" width="160" height="60" as="geometry" />
        </mxCell>
        <mxCell id="jWbt91FMcHT18E_j-DVa-186" value="&lt;div&gt;Officials help the Customer with CREDIT/DEBIT requests&lt;/div&gt;&lt;div&gt;&lt;br&gt;&lt;/div&gt;" style="text;html=1;align=center;verticalAlign=middle;resizable=0;points=[];autosize=1;strokeColor=none;fillColor=none;" parent="1" vertex="1">
          <mxGeometry x="460" y="234" width="330" height="40" as="geometry" />
        </mxCell>
        <mxCell id="jWbt91FMcHT18E_j-DVa-190" value="Mention TYPE and Interest Rate" style="text;html=1;align=center;verticalAlign=middle;resizable=0;points=[];autosize=1;strokeColor=none;fillColor=none;" parent="1" vertex="1">
          <mxGeometry x="510" y="601" width="200" height="30" as="geometry" />
        </mxCell>
        <mxCell id="jWbt91FMcHT18E_j-DVa-191" value="&lt;div&gt;&lt;br&gt;&lt;/div&gt;&lt;div&gt;Approves/Rejects&amp;nbsp;&lt;/div&gt;&lt;div&gt;Loan&lt;/div&gt;" style="text;html=1;align=center;verticalAlign=middle;resizable=0;points=[];autosize=1;strokeColor=none;fillColor=none;" parent="1" vertex="1">
          <mxGeometry x="510" y="417" width="120" height="60" as="geometry" />
        </mxCell>
        <mxCell id="jWbt91FMcHT18E_j-DVa-192" value="Requests&amp;nbsp;&lt;div&gt;loan&lt;/div&gt;" style="text;html=1;align=center;verticalAlign=middle;resizable=0;points=[];autosize=1;strokeColor=none;fillColor=none;" parent="1" vertex="1">
          <mxGeometry x="405" y="437" width="80" height="40" as="geometry" />
        </mxCell>
        <mxCell id="jWbt91FMcHT18E_j-DVa-193" value="Requests Transaction" style="text;html=1;align=center;verticalAlign=middle;resizable=0;points=[];autosize=1;strokeColor=none;fillColor=none;" parent="1" vertex="1">
          <mxGeometry x="429" y="294" width="140" height="30" as="geometry" />
        </mxCell>
        <mxCell id="jWbt91FMcHT18E_j-DVa-194" value="Updates loan" style="text;html=1;align=center;verticalAlign=middle;resizable=0;points=[];autosize=1;strokeColor=none;fillColor=none;" parent="1" vertex="1">
          <mxGeometry x="295" y="258" width="90" height="30" as="geometry" />
        </mxCell>
        <mxCell id="jWbt91FMcHT18E_j-DVa-195" value="Part of Employee group" style="text;html=1;align=center;verticalAlign=middle;resizable=0;points=[];autosize=1;strokeColor=none;fillColor=none;" parent="1" vertex="1">
          <mxGeometry x="655" y="300.57" width="150" height="30" as="geometry" />
        </mxCell>
      </root>
    </mxGraphModel>
  </diagram>
</mxfile>
